<!-- Generated by IcoMoon.io -->
<svg version="1.1" xmlns="http://www.w3.org/2000/svg" width="32" height="32" viewBox="0 0 32 32">
<title>cercle</title>
<path d="M12.8 1.44c0 1.344-0.384 1.696-2.176 2.016-7.84 1.472-12.928 12.224-9.44 19.904 4.544 9.984 18.432 11.68 24.736 3.008 1.312-1.824 2.304-2.56 3.104-2.4 4.832 1.056 3.552-13.248-1.696-18.752-4.416-4.608-14.528-7.232-14.528-3.776zM20.48 3.328c5.12 1.888 9.12 7.552 9.184 13.024 0.064 5.184-0.384 5.344-7.872 2.784l-6.432-2.176v-15.072l1.76 0.448c0.96 0.224 2.464 0.672 3.36 0.992zM12.928 11.936l0.192 6.848 6.080 2.048c6.304 2.112 6.752 2.592 4.576 4.992-10.048 11.2-27.712-2.848-19.2-15.264 1.28-1.888 6.272-5.376 7.712-5.44 0.256 0 0.544 3.072 0.64 6.816z"></path>
</svg>
