<!-- Generated by IcoMoon.io -->
<svg version="1.1" xmlns="http://www.w3.org/2000/svg" width="31" height="32" viewBox="0 0 31 32">
<title>comp</title>
<path d="M1.28 1.28c-1.184 1.184-1.28 2.144-1.28 11.84 0 13.056 0.032 13.12 7.36 13.12h4.8v1.92c0 1.632-0.256 1.92-1.6 1.92-1.024 0-1.6 0.352-1.6 0.992 0 1.152 14.080 1.12 14.112-0.032 0-0.352-0.576-0.736-1.28-0.832-0.992-0.16-1.312-0.704-1.312-2.080v-1.888h4.16c6.592 0 6.72-0.256 6.72-13.12 0-14.176 1.28-13.12-15.68-13.12-12.256 0-13.216 0.096-14.4 1.28zM28.672 2.688c0.512 0.512 0.768 3.232 0.768 8v7.232h-27.52v-7.232c0-4.768 0.256-7.488 0.768-8 1.088-1.088 24.896-1.088 25.984 0zM29.12 21.888v1.472l-13.248 0.16c-12.768 0.192-13.216 0.128-13.632-1.088-0.672-2.208-0.192-2.272 13.536-2.144l13.344 0.128v1.472zM17.92 28.16c0 1.696-0.224 1.92-1.92 1.92s-1.92-0.224-1.92-1.92c0-1.696 0.224-1.92 1.92-1.92s1.92 0.224 1.92 1.92z"></path>
</svg>
