<!-- Generated by IcoMoon.io -->
<svg version="1.1" xmlns="http://www.w3.org/2000/svg" width="32" height="32" viewBox="0 0 32 32">
<title>hurt</title>
<path d="M4.512 2.112c-4.544 2.272-5.728 8.032-2.624 12.672 2.912 4.352 13.088 15.616 14.112 15.616 1.12 0 12.224-12.416 14.496-16.192 5.184-8.576-6.176-17.792-12.832-10.432-1.12 1.216-1.184 1.216-4.096-0.64-3.2-2.016-6.4-2.4-9.056-1.024zM11.904 4.896c1.344 0.896 2.816 2.144 3.232 2.72 0.704 0.928 0.992 0.8 2.912-0.992 5.92-5.568 13.28-2.816 11.68 4.416-0.384 1.792-12.608 16.8-13.664 16.8-0.832 0-12.896-14.368-13.568-16.192-2.208-5.76 4.128-10.336 9.408-6.752z"></path>
</svg>
