<!-- Generated by IcoMoon.io -->
<svg version="1.1" xmlns="http://www.w3.org/2000/svg" width="18" height="32" viewBox="0 0 18 32">
<title>mobile</title>
<path d="M1.28 1.28c-1.184 1.184-1.28 2.144-1.28 14.72 0 16.768-0.448 16 9.184 16 9.248 0 8.736 0.928 8.736-15.904 0-16.864 0.416-16.096-8.96-16.096-5.536 0-6.56 0.16-7.68 1.28zM15.232 2.688c1.984 1.984 0.896 2.432-6.272 2.432-5.344 0-7.040-0.192-7.040-0.832 0-1.824 1.6-2.368 7.040-2.368 3.424 0 5.792 0.288 6.272 0.768zM16 13.44v6.4h-14.080v-12.8h14.080v6.4zM16 25.472c0 4.224-0.576 4.608-7.040 4.608s-7.040-0.384-7.040-4.608v-3.072h14.080v3.072z"></path>
<path d="M7.712 24.608c-1.248 1.472-0.544 3.232 1.248 3.232 1.184 0 1.664-0.384 1.824-1.536 0.32-2.272-1.696-3.36-3.072-1.696z"></path>
</svg>
