<!-- Generated by IcoMoon.io -->
<svg version="1.1" xmlns="http://www.w3.org/2000/svg" width="26" height="32" viewBox="0 0 26 32">
<title>tablet</title>
<path d="M1.28 1.28c-1.184 1.184-1.28 2.144-1.28 14.72 0 17.312-1.088 16 13.12 16s13.12 1.312 13.12-16c0-17.312 1.088-16-13.12-16-9.696 0-10.656 0.096-11.84 1.28zM23.552 2.688c1.088 1.088 1.088 25.536 0 26.624s-19.776 1.088-20.864 0c-1.088-1.088-1.088-25.536 0-26.624s19.776-1.088 20.864 0z"></path>
<path d="M4.608 4.608c-1.44 1.44-1.024 14.4 0.48 15.2 1.6 0.864 14.464 0.864 16.064 0 1.504-0.8 1.92-13.76 0.48-15.2-1.056-1.056-15.968-1.056-17.024 0zM19.84 12.16v5.76h-13.44v-11.52h13.44v5.76z"></path>
<path d="M5.216 23.392l-1.536 1.6 1.696 1.664 1.664 1.664 1.664-1.664 1.696-1.664-1.536-1.6c-1.856-1.984-1.792-1.984-3.648 0z"></path>
<path d="M15.008 22.464c-0.672 1.056 0.832 2.272 1.696 1.408 0.736-0.736 0.288-2.112-0.704-2.112-0.32 0-0.768 0.32-0.992 0.704z"></path>
<path d="M20.128 22.464c-0.672 1.056 0.832 2.272 1.696 1.408 0.736-0.736 0.288-2.112-0.704-2.112-0.32 0-0.768 0.32-0.992 0.704z"></path>
<path d="M14.496 26.048c-0.224 0.224-0.416 0.8-0.416 1.248 0 0.96 1.664 1.184 2.208 0.288 0.416-0.704-1.216-2.144-1.792-1.536z"></path>
</svg>
