<!-- Generated by IcoMoon.io -->
<svg version="1.1" xmlns="http://www.w3.org/2000/svg" width="32" height="32" viewBox="0 0 32 32">
<title>tessel</title>
<path d="M18.848 10.912c-5.664 5.344-9.504 8.512-10.656 8.736-1.696 0.32-4.992 3.424-4.992 4.704 0 0.32-0.736 0.96-1.664 1.44l-1.664 0.864 1.792 1.152c4.288 2.816 11.456 1.44 12.224-2.336 0.256-1.312 2.944-4.288 9.248-10.24 8.832-8.384 9.984-10.016 8.096-11.904-1.792-1.792-3.616-0.704-12.384 7.584zM29.728 5.056c0.512 0.832-12.608 12.96-13.28 12.288-0.48-0.48 11.456-12.8 12.48-12.832 0.224-0.032 0.608 0.224 0.8 0.544zM15.36 19.136c0 0.928-1.824 2.112-2.56 1.664-0.512-0.32-0.48-0.704 0.032-1.344 0.832-0.992 2.528-1.216 2.528-0.32zM12.032 23.808c0.256 2.080-2.368 3.712-5.92 3.712-2.784 0-2.816-0.352-0.288-3.424 2.528-3.040 5.888-3.232 6.208-0.288z"></path>
</svg>
